<svg width="102" height="166" viewBox="0 0 102 166" fill="none" xmlns="http://www.w3.org/2000/svg">
<path id="Vector" d="M130.865 32.5727C107.965 9.20826 78.7025 6.40655 55.8641 13.4298C51.714 14.6976 47.2407 14.051 43.4136 11.9719C33.15 6.3812 22.5013 6.22907 14.3873 14.5074C6.26093 22.7984 6.41004 33.663 11.9022 44.1472C14.0053 48.0219 14.5234 52.5874 13.3436 56.8499C6.47217 80.1383 9.23066 109.968 32.1187 133.333C55.0068 156.672 84.2319 159.499 107.07 152.501C111.22 151.233 115.694 151.892 119.508 153.971C129.797 159.575 140.445 159.74 148.572 151.436C156.686 143.158 156.549 132.306 151.069 121.834C148.97 117.958 148.457 113.392 149.64 109.132C156.537 85.8305 153.803 55.9625 130.878 32.5854L130.865 32.5727Z" stroke="#ECF5E1" stroke-width="15"/>
</svg>
